<svg xmlns="http://www.w3.org/2000/svg" xmlns:xlink="http://www.w3.org/1999/xlink" width="196" height="121" viewBox="0 0 196 121"><defs><path id="3f65a" d="M338.402 504.479l189.196-108.5.5.866-189.196 108.5zm-4.5-7.795l-1.5-2.598 189.195-108.5 1.5 2.598zm116.42-74.366C445.088 417.175 437.916 414 430 414c-16.016 0-29 12.984-29 29 0 2.45.307 4.827.878 7.099l-.9.517A30.04 30.04 0 0 1 400 443c0-16.569 13.431-30 30-30 8.29 0 15.796 3.363 21.225 8.8zM386.455 482H485c4.962 0 9-4.038 9-9v-51c0-.543-.057-1.073-.15-1.59l.92-.527c.147.683.23 1.39.23 2.117v51c0 5.514-4.486 10-10 10H384.71zM430 470a26.867 26.867 0 0 1-14.852-4.455l2.963-1.7A23.881 23.881 0 0 0 430 467c13.165 0 23.849-10.602 23.993-23.732l2.968-1.702c.025.475.039.953.039 1.434 0 14.912-12.088 27-27 27zm-16.776-3.352A28.858 28.858 0 0 0 430 472c16.016 0 29-12.984 29-29 0-.855-.045-1.7-.117-2.536l.96-.55c.103 1.014.157 2.044.157 3.086 0 16.568-13.432 30-30 30a29.859 29.859 0 0 1-17.73-5.804zM430 419c-13.255 0-24 10.745-24 24 0 1.536.15 3.036.426 4.491l-2.735 1.569A27.063 27.063 0 0 1 403 443c0-14.912 12.088-27 27-27 7.168 0 13.678 2.798 18.512 7.355l-2.734 1.569A23.9 23.9 0 0 0 430 419zm69.244-1.683c.485 1.475.756 3.046.756 4.683v51c0 8.284-6.716 15-15 15H375.992l5.231-3H485c6.617 0 12-5.383 12-12v-51c0-1.09-.16-2.142-.433-3.148zm-84.098 10.83a20.868 20.868 0 0 1 11.304-5.831l.53 1.944a18.891 18.891 0 0 0-10.415 5.305 18.944 18.944 0 0 0-3.619 5.088l-1.816-.843a20.906 20.906 0 0 1 4.016-5.664zm-55.091 45.937c-.026-.36-.055-.718-.055-1.084v-51c0-8.284 6.716-15 15-15h17c9.975 0 9.99-19 20-19h36c10.01 0 10.025 19 20 19h9.032l-5.23 3H468c-6.794 0-10.032-6.149-12.634-11.09-2.593-4.922-4.382-7.91-7.366-7.91h-36c-2.984 0-4.774 2.988-7.366 7.91-2.602 4.941-5.84 11.09-12.634 11.09h-17c-6.617 0-12 5.383-12 12v50.395zm92.656-73.775c-1.48-2.811-3.323-6.31-4.711-6.31h-36c-1.389 0-3.231 3.499-4.712 6.31-2.82 5.356-6.684 12.69-15.288 12.69h-17c-4.963 0-9 4.038-9 9v48.676l-1 .573V422c0-5.514 4.486-10 10-10h17c8 0 11.701-7.027 14.404-12.157C408.58 395.709 410.146 393 412 393h36c1.853 0 3.419 2.71 5.596 6.843C456.298 404.973 460 412 468 412h.314l-1.622.93c-7.691-.705-11.308-7.546-13.98-12.621z"/></defs><g><g clip-path="url(#clip-9854)" transform="translate(-332 -385)"><use fill="#c8d2dc" xlink:href="#3f65a"/></g></g></svg>