<svg xmlns="http://www.w3.org/2000/svg" xmlns:xlink="http://www.w3.org/1999/xlink" width="123" height="19" viewBox="0 0 123 19"><defs><path id="1hbxa" d="M158.79 35.825v9.187h-3.74v-9.187h-4.21v-1.838H163v1.838zm-73.892 9.187h-3.741l-1.316-2.297h-5.787l-1.316 2.297h-3.741l6.283-11.025h3.363zm-9.792-4.135h3.683l-1.842-3.215zm19.145-.848l4.21-6.042h3.741v11.025H98.46v-5.654l-2.338 3.357h-3.741l-2.339-3.357v5.654h-3.741V33.987h3.741zm19-6.042l6.255 11.025h-3.741l-1.316-2.297h-5.787l-1.316 2.297h-3.74l6.282-11.025zm.146 6.89l-1.841-3.215-1.842 3.215zm11.253-2.296h4.677v-4.594h3.742v11.025h-3.742v-4.594h-4.677v4.594h-3.741V33.987h3.741zm15.434 1.837l4.676-6.43h3.742v11.024h-3.742V38.58l-4.676 6.43h-3.742V33.988h3.742zM54.5 45l2.5-4h-5l2.5 4H51v-2h-2.5l2.5-4h-5l2.5 4h-5.026L51 30l8.684 15zM50 44v2h10.263L62 49H40l2.895-5z"/></defs><g><g transform="translate(-40 -30)"><use fill="#fff" xlink:href="#1hbxa"/></g></g></svg>