<svg xmlns="http://www.w3.org/2000/svg" xmlns:xlink="http://www.w3.org/1999/xlink" width="60" height="53" viewBox="0 0 60 53"><defs><path id="30nna" d="M310 243l-30.008-17.5L280 190h60l.007 35.5z"/><path id="30nnb" d="M310 243l-30-17.5.007-35.5h59.986l.007 35.5zm26.994-50h-53.988l-.007 30.777 27 15.75L337 223.777zm-51.988 2h49.988l.006 27.452L310 237l-25-14.548zM310 235.843l24-13.966-.006-25.877h-47.989L286 221.877z"/><path id="30nnc" d="M320 225h-20a2 2 0 0 1-2-2v-14a2 2 0 0 1 2-2h3v-8h1l2 1 2-1 2 1 2-1 2 1 2-1h1v8h3a2 2 0 0 1 2 2v14a2 2 0 0 1-2 2zm-3.5-4a1.5 1.5 0 1 0 0-3 1.5 1.5 0 0 0 0 3zm-5 0a1.5 1.5 0 1 0 0-3 1.5 1.5 0 0 0 0 3zm7.5-9h-3v-12l-2 1-2-1-2 1-2-1-2 1-2-1v12h-3v1h18zm-8-8h-6v-1h6zm-3 2h-3v-1h3zm3 2h-6v-1h6zm-3 2h-3v-1h3zm7 0h-6v-1h6zm-3-3h3v1h-3zm-3-2h6v1h-6zm3-2h3v1h-3z"/></defs><g><g transform="translate(-280 -190)"><g><use fill="#fff" xlink:href="#30nna"/></g><g><use fill="#505050" xlink:href="#30nnb"/></g><g><use fill="#505050" xlink:href="#30nnc"/></g></g></g></svg>