<svg xmlns="http://www.w3.org/2000/svg" xmlns:xlink="http://www.w3.org/1999/xlink" width="43" height="50" viewBox="0 0 43 50"><defs><path id="zz9ka" d="M586 595v-50h28l10 10v40zm32.293-44.293L615 547.414V554h6.586zm4.707 4.707l-.414-.414H614v-8.586l-.414-.414H587v48h36zM613 556h9v37h-34v-46h25zm5 6h-18v1h18zm0 3h-12v1h12zm0 3h-6v1h6zm0 3h-18v1h18zm0 3h-12v1h12zm0 3h-6v1h6zm0 3h-18v1h18zm0 3h-12v1h12zm-26 4h18v-1h-18zm0-3h12v-1h-12zm0-3h6v-1h-6zm0-3h18v-1h-18zm0-3h12v-1h-12zm0-3h6v-1h-6zm0-3h18v-1h-18zm0-3h12v-1h-12zm0-3h6v-1h-6zm17-10h-17v2h17zm1 6h-18v1h18zm2 1h6v-1h-6z"/><path id="zz9kb" d="M581 590v-16h31v16z"/><path id="zz9kc" d="M581 590v-16h31v16zm30-15h-29v14h29zm-28 13v-12h27v12z"/><path id="zz9kd" d="M603 579v3h3v1h-3v3h-2v-7a1 1 0 0 1 1-1h5v1zm-5.5 7H593v-8h4.5a2.5 2.5 0 0 1 2.5 2.5v3a2.5 2.5 0 0 1-2.5 2.5zm.5-5.5a1.5 1.5 0 0 0-1.5-1.5H595v6h1.5a1.5 1.5 0 0 0 1.5-1.5zm-8.5 3.5H588v2h-2v-8h3.5a2.5 2.5 0 0 1 2.5 2.5v1a2.5 2.5 0 0 1-2.5 2.5zm.5-3.5a1.5 1.5 0 0 0-1.5-1.5h-.5v4h.5a1.5 1.5 0 0 0 1.5-1.5z"/></defs><g><g transform="translate(-581 -545)"><use fill="#505050" xlink:href="#zz9ka"/></g><g transform="translate(-581 -545)"><use fill="#fff" xlink:href="#zz9kb"/></g><g transform="translate(-581 -545)"><use fill="#505050" xlink:href="#zz9kc"/></g><g transform="translate(-581 -545)"><use fill="#ffa42d" xlink:href="#zz9kd"/></g></g></svg>