<svg xmlns="http://www.w3.org/2000/svg" xmlns:xlink="http://www.w3.org/1999/xlink" width="18" height="18" viewBox="0 0 18 18"><defs><path id="vzyca" d="M1057.161 1012c0 .228-.047.445-.069.668l1.904 2.1-2.045 3.464-2.786-.558a7.385 7.385 0 0 1-1.214.674l-.904 2.651h-4.09l-.905-2.651a7.381 7.381 0 0 1-1.214-.674l-2.785.558-2.046-3.465 1.904-2.099c-.022-.223-.069-.44-.069-.669 0-.229.047-.445.07-.668l-1.905-2.1 2.046-3.464 2.785.558a7.347 7.347 0 0 1 1.214-.674l.904-2.652h4.091l.904 2.652c.426.192.837.408 1.214.674l2.786-.558 2.045 3.465-1.904 2.099c.022.223.07.44.07.668zm.58-2.893l-1.308-2.216-2.063.413-.438.088-.364-.255a6.292 6.292 0 0 0-1.046-.578l-.401-.182-.14-.41-.671-1.968h-2.617l-.67 1.968-.14.41-.402.182c-.427.193-.76.376-1.046.578l-.364.255-.438-.088-2.063-.413-1.309 2.216 1.415 1.56.296.326-.043.433c-.009.091-.021.18-.033.27-.014.1-.031.2-.031.303 0 .104.017.203.03.303.013.09.025.18.034.27l.043.434-.296.325-1.415 1.56 1.309 2.216 2.063-.412.438-.088.364.255c.287.202.62.385 1.046.578l.401.182.14.41.671 1.967h2.617l.67-1.967.14-.41.402-.182c.427-.193.76-.376 1.046-.578l.364-.255.438.088 2.063.412 1.309-2.215-1.415-1.56-.296-.326.043-.434c.009-.09.021-.18.034-.27.014-.1.03-.199.03-.303 0-.103-.016-.203-.03-.303a6.463 6.463 0 0 1-.034-.27l-.043-.433.296-.326zm-2.726 1.548l.086.868c.01.103.024.206.038.308.008.058.019.115.021.162-.002.06-.013.117-.021.175a7.87 7.87 0 0 0-.038.308l-.086.867.591.652.926 1.02-.571.968-1.34-.268-.878-.176-.727.511c-.23.162-.516.32-.878.482l-.803.363-.28.82-.437 1.285h-1.143l-.438-1.285-.28-.82-.803-.363a5.368 5.368 0 0 1-.878-.482l-.726-.51-.878.175-1.34.268-.572-.967.926-1.021.591-.652-.085-.866a8.053 8.053 0 0 0-.038-.31c-.008-.057-.02-.114-.022-.161.003-.06.014-.117.022-.175.014-.102.028-.205.038-.309l.085-.867-.59-.651-.927-1.02.572-.968 1.34.268.878.176.726-.511c.23-.162.517-.32.878-.482l.804-.363.28-.82.437-1.285h1.143l.437 1.284.28.82.803.364c.362.163.649.32.878.482l.727.51.877-.175 1.341-.268.571.967-.926 1.02zM1050 1009a3 3 0 1 0 0 6 3 3 0 0 0 0-6z"/></defs><g><g transform="translate(-1041 -1003)"><use fill="#ffa42d" xlink:href="#vzyca"/></g></g></svg>