<svg xmlns="http://www.w3.org/2000/svg" xmlns:xlink="http://www.w3.org/1999/xlink" width="17" height="17" viewBox="0 0 17 17"><defs><path id="upjla" d="M1470.375 621.473l-8.073 8.073-1.427 1.427-1.427-1.427-4.036-4.037-1.428-1.427 1.428-1.427 8.072-8.073.592-.591h6.89v6.89zm-.418-6.473h-5.464l-.295.296-8.073 8.073-.713.713.713.714 4.037 4.036.713.714.714-.714 8.073-8.073.295-.295zm-13.118 9.082l8.073-8.073h4.036v4.037l-8.073 8.073zm9.16-4.083a1 1 0 1 0 .001-2 1 1 0 0 0 0 2z"/></defs><g><g transform="translate(-1454 -614)"><use fill="#96a0aa" xlink:href="#upjla"/></g></g></svg>