<svg xmlns="http://www.w3.org/2000/svg" xmlns:xlink="http://www.w3.org/1999/xlink" width="16" height="16" viewBox="0 0 16 16"><defs><path id="hu21a" d="M787.18 1268.487a5.162 5.162 0 0 1-7.269 0l-1.454 1.446-1.454-5.781 5.816 1.445-1.454 1.445a3.098 3.098 0 0 0 4.362 0 3.053 3.053 0 0 0 0-4.336l1.454-1.445a5.088 5.088 0 0 1 0 7.226zm-4.361-13.007a5.162 5.162 0 0 1 7.27 0l1.454-1.445 1.454 5.78-5.816-1.445 1.454-1.445a3.097 3.097 0 0 0-4.362 0 3.053 3.053 0 0 0 0 4.336l-1.454 1.445a5.088 5.088 0 0 1 0-7.226z"/><linearGradient id="hu21b" x1="790" x2="780" y1="1269.98" y2="1253.98" gradientUnits="userSpaceOnUse"><stop offset="0" stop-color="#ffa42d"/><stop offset="1" stop-color="#ff662d"/></linearGradient></defs><g><g transform="translate(-777 -1254)"><use fill="#96a0aa" xlink:href="#hu21a"/><use fill="url(#hu21b)" xlink:href="#hu21a"/></g></g></svg>