<svg xmlns="http://www.w3.org/2000/svg" xmlns:xlink="http://www.w3.org/1999/xlink" width="16" height="15" viewBox="0 0 16 15"><defs><path id="wswga" d="M816 187.816c0 4.26-6 7.888-6 7.888s-6-3.597-6-7.888c0-.34.352-2.869 3-2.869s3 3.13 3 3.13.352-3.13 3-3.13 3 2.59 3 2.869zm2 0c0 5.2-6.237 9.121-6.949 9.551l-1.047.633-1.05-.629c-.711-.427-6.954-4.32-6.954-9.555 0-1.575 1.222-4.824 5-4.824 1.275 0 2.257.42 3 1.036.742-.616 1.724-1.037 3-1.037 3.74 0 5 3.313 5 4.825zm-1 0c0-1.205-1.007-3.847-4-3.847-1.41 0-2.372.661-3 1.495-.629-.834-1.591-1.495-3-1.495-3.022 0-4 2.592-4 3.847 0 4.784 6.213 8.563 6.477 8.721l.525.315.524-.316c.264-.16 6.474-3.97 6.474-8.72z"/><linearGradient id="wswgb" x1="814" x2="806" y1="198" y2="182.99" gradientUnits="userSpaceOnUse"><stop offset="0" stop-color="#28e18d"/><stop offset="1" stop-color="#3296dc"/></linearGradient></defs><g><g transform="translate(-802 -183)"><use fill="#96a0aa" xlink:href="#wswga"/><use fill="url(#wswgb)" xlink:href="#wswga"/></g></g></svg>