<svg xmlns="http://www.w3.org/2000/svg" xmlns:xlink="http://www.w3.org/1999/xlink" width="18" height="16" viewBox="0 0 18 16"><defs><path id="vp2xa" d="M207 2138.999h-1l-3 3h-1l-3-3h-6a2 2 0 0 1-2-2v-9a2 2 0 0 1 2-2h14a2 2 0 0 1 2 2v9a2 2 0 0 1-2 2zm1-11c0-.551-.449-1-1-1h-14c-.552 0-1 .449-1 1v9c0 .551.448 1 1 1h6.414l3 3h.172l3-3H207c.551 0 1-.449 1-1zm-2 9h-.829l-2.671 2.672-2.672-2.672H194a1 1 0 0 1-1-1v-7a1 1 0 0 1 1-1h12a1 1 0 0 1 1 1v7a1 1 0 0 1-1 1zm-11-2h6v-1h-6zm0-2h3v-1h-3zm6-3h-6v1h6zm4 0h-3v1h3zm0 2h-6v1h6zm0 2h-3v1h3z"/></defs><g><g transform="translate(-191 -2126)"><use fill="#505050" xlink:href="#vp2xa"/></g></g></svg>