<svg xmlns="http://www.w3.org/2000/svg" xmlns:xlink="http://www.w3.org/1999/xlink" width="20" height="20" viewBox="0 0 20 20"><defs><path id="hofla" d="M1050 265c-5.523 0-10-4.478-10-10 0-5.523 4.477-10 10-10s10 4.477 10 10c0 5.522-4.477 10-10 10zm0-19a9 9 0 1 0 0 18 9 9 0 0 0 0-18zm0 17a8 8 0 1 1 0-16 8 8 0 0 1 0 16zm3.39-11.813c-.864-.84-1.686-1.107-1.72-1.118l-.238-.074-1.441 5.291-1.453-5.29-.236.073c-.035.01-.859.27-1.723 1.118-1.17 1.145-1.707 2.659-1.593 4.497.105 1.727 1.252 3.167 1.301 3.228l.072.088 3.216-.01-.763-.437c-.017-.01-1.825-1.059-2.252-2.663-.564-2.09.444-3.409.898-3.872.078-.073.167-.12.23-.12.097 0 .15.15.176.243l1.899 6.629.055.17h.36l.049-.171s1.4-4.912 1.9-6.63c.025-.09.082-.24.18-.24.063 0 .148.044.219.113.46.47 1.468 1.788.903 3.88-.426 1.598-2.234 2.65-2.252 2.662l-.76.435 3.214.01.072-.087c.049-.061 1.203-1.509 1.302-3.228.1-1.847-.442-3.36-1.615-4.497z"/></defs><g><g transform="translate(-1040 -245)"><use fill="#2484c6" xlink:href="#hofla"/></g></g></svg>