<svg xmlns="http://www.w3.org/2000/svg" xmlns:xlink="http://www.w3.org/1999/xlink" width="24" height="24" viewBox="0 0 24 24"><defs><path id="ff0ra" d="M1071.492 1237.508a1.65 1.65 0 0 1-2.334 0l-7.39-7.39.779-.777-1.306-1.306A7.961 7.961 0 0 1 1056 1230a8 8 0 1 1 8-8 7.96 7.96 0 0 1-1.98 5.257l1.305 1.306.777-.778 7.39 7.39a1.65 1.65 0 0 1 0 2.333zM1063 1222a7 7 0 1 0-14 0 7 7 0 0 0 14 0zm-7 6a6 6 0 1 1 0-12 6 6 0 0 1 0 12zm0-10a4 4 0 1 0 0 8 4 4 0 0 0 0-8z"/></defs><g><g transform="translate(-1048 -1214)"><use fill="#c8d2dc" xlink:href="#ff0ra"/></g></g></svg>