<svg xmlns="http://www.w3.org/2000/svg" xmlns:xlink="http://www.w3.org/1999/xlink" width="20" height="11" viewBox="0 0 20 11"><defs><path id="177ia" d="M1741 95h-13a1 1 0 0 1-1-1v-9a1 1 0 0 1 1-1h13a1 1 0 0 1 1 1v9a1 1 0 0 1-1 1zm0-9.5a.5.5 0 0 0-.5-.5h-12a.5.5 0 0 0-.5.5v8a.5.5 0 0 0 .5.5h12a.5.5 0 0 0 .5-.5zm-4 5.5l3 1v1l-3-1zm-3 0l-5-4v-1l5 4h1l5-4v1l-5 4zm-2 1l-3 1v-1l3-1zm-8-4h2v1h-2zm-1-2h3v1h-3zm-1-2h4v1h-4z"/></defs><g><g transform="translate(-1722 -84)"><use fill="#505050" xlink:href="#177ia"/></g></g></svg>