<svg xmlns="http://www.w3.org/2000/svg" xmlns:xlink="http://www.w3.org/1999/xlink" width="17" height="13" viewBox="0 0 17 13"><defs><path id="8n0ha" d="M1487.5 95a1.5 1.5 0 1 1 0-3 1.5 1.5 0 0 1 0 3zm0-2a.5.5 0 1 0 0 1 .5.5 0 0 0 0-1zm7 2a1.5 1.5 0 1 1 0-3 1.5 1.5 0 0 1 0 3zm0-2a.5.5 0 1 0 0 1 .5.5 0 0 0 0-1zm-6.5-4v-1h6v1zm-1-2v-1h8v1zm9 4h-10l-2-6v-2h-3v-1h4v2h13v1zm-10.667-6l1.667 5h8l1.666-5z"/></defs><g><g transform="translate(-1481 -82)"><use fill="#505050" xlink:href="#8n0ha"/></g></g></svg>