<svg xmlns="http://www.w3.org/2000/svg" xmlns:xlink="http://www.w3.org/1999/xlink" width="20" height="19" viewBox="0 0 20 19"><defs><path id="nfvza" d="M892.998 233.125l1.18 6.875-6.18-3.246-6.18 3.246 1.181-6.875-5-4.868 6.91-1.003 3.09-6.254 3.09 6.254 6.908 1.003zm-2.054-4.881l-.52-.076-.233-.471-2.193-4.438-2.192 4.438-.233.47-.52.077-4.902.711 3.547 3.454.377.367-.09.518-.837 4.878 4.385-2.303.466-.245.465.245 4.385 2.303-.838-4.878-.088-.518.376-.367 3.548-3.454zM888 225.519l1.294 2.62.466.943 1.042.151 2.894.42-2.094 2.04-.754.734.178 1.037.494 2.88-2.589-1.36-.931-.49-.932.49-2.59 1.36.495-2.88.178-1.037-.754-.734-2.094-2.04 2.895-.42 1.041-.151.466-.943 1.295-2.62"/></defs><g><g transform="translate(-878 -221)"><use fill="#ffa42d" xlink:href="#nfvza"/></g></g></svg>