<svg xmlns="http://www.w3.org/2000/svg" xmlns:xlink="http://www.w3.org/1999/xlink" width="43" height="50" viewBox="0 0 43 50"><defs><path id="t4hfa" d="M196 810v-50h28l10 10v40zm32.293-44.293L225 762.414v6.585h6.586zm4.707 4.707l-.414-.415H224v-8.585l-.414-.415H197v48h36zm-10 .585h9v37h-34v-46h25zm5 6h-18v1h18zm0 3h-12v1h12zm0 3h-6v1h6zm0 3h-18v1h18zm0 3h-12v1h12zm0 3h-6v1h6zm0 3h-18v1h18zm0 3h-12v1h12zm-26 4h18v-1h-18zm0-3h12v-1h-12zm0-3h6v-1h-6zm0-3h18v-1h-18zm0-3h12v-1h-12zm0-3h6v-1h-6zm0-3h18v-1h-18zm0-3h12v-1h-12zm0-3h6v-1h-6zm17-10h-17v2h17zm1 6h-18v1h18zm2 1h6v-1h-6z"/><path id="t4hfb" d="M191 805v-16h31v16z"/><path id="t4hfc" d="M191 805v-16h31v16zm30-15h-29v14h29zm-28 13v-12h27v12z"/><path id="t4hfd" d="M214.5 794a1.5 1.5 0 0 0-1.5 1.5v3a1.5 1.5 0 0 0 1.5 1.5c.651 0 1.191-.42 1.399-1h2.05a2.5 2.5 0 0 1-2.45 2h-2a2.5 2.5 0 0 1-2.5-2.5v-3a2.5 2.5 0 0 1 2.5-2.5h2a2.5 2.5 0 0 1 2.45 2h-2.05c-.208-.58-.748-1-1.4-1zm-7 7h-2a2.5 2.5 0 0 1-2.5-2.5v-3a2.5 2.5 0 0 1 2.5-2.5h2a2.5 2.5 0 0 1 2.5 2.5v3a2.5 2.5 0 0 1-2.5 2.5zm.5-5.5a1.5 1.5 0 0 0-3 0v3a1.5 1.5 0 0 0 3 0zm-8.5 5.5H195v-8h4.5a2.5 2.5 0 0 1 2.5 2.5v3a2.5 2.5 0 0 1-2.5 2.5zm.5-5.5a1.5 1.5 0 0 0-1.5-1.5H197v6h1.5a1.5 1.5 0 0 0 1.5-1.5z"/></defs><g><g transform="translate(-191 -760)"><g><use fill="#505050" xlink:href="#t4hfa"/></g><g><use fill="#fff" xlink:href="#t4hfb"/></g><g><use fill="#505050" xlink:href="#t4hfc"/></g><g><use fill="#ffa42d" xlink:href="#t4hfd"/></g></g></g></svg>