<svg xmlns="http://www.w3.org/2000/svg" xmlns:xlink="http://www.w3.org/1999/xlink" width="28" height="28" viewBox="0 0 28 28"><defs><path id="kwkga" d="M514 771v-28h28v28zm14-23a9 9 0 1 0 0 18 9 9 0 0 0 0-18zm0 17a8 8 0 1 1 0-16 8 8 0 0 1 0 16zm0-15a7 7 0 1 0 0 14 7 7 0 0 0 0-14zm.585 10.274c0 .213-.042.361-.126.445-.085.085-.234.127-.447.127h-.384c-.213 0-.362-.042-.446-.127-.085-.084-.126-.232-.126-.445v-.527c0-.213.041-.36.126-.44.084-.082.233-.122.446-.122h.384c.213 0 .362.04.447.121.084.08.126.228.126.44zm1.88-5.555c0 .293-.064.566-.192.82a2.744 2.744 0 0 1-.468.665c-.182.191-.37.385-.56.583-.19.198-.36.438-.506.72a2.32 2.32 0 0 0-.253.93h-1.32c-.015-.44.054-.847.209-1.22.154-.375.328-.668.522-.88.194-.214.38-.437.556-.672.176-.235.271-.444.286-.627.021-.242-.048-.42-.209-.534-.161-.113-.429-.17-.803-.17-.645 0-1.383.019-2.211.055l-.055-1.111.445-.082a9.237 9.237 0 0 1 .875-.127c.19-.022.39-.036.6-.044.209-.007.452-.011.731-.011.792 0 1.382.14 1.77.418.39.28.583.708.583 1.287z"/><path id="kwkgb" d="M537 757a9 9 0 1 1-18 0 9 9 0 0 1 18 0zm-1 0a8 8 0 1 0-16 0 8 8 0 0 0 16 0zm-1 0a7 7 0 1 1-14 0 7 7 0 0 1 14 0zm-6.415 2.747c0-.213-.042-.36-.126-.44-.085-.082-.234-.122-.447-.122h-.384c-.213 0-.362.04-.446.121-.085.08-.126.228-.126.44v.528c0 .213.041.361.126.445.084.085.233.127.446.127h.384c.213 0 .362-.042.447-.127.084-.084.126-.232.126-.445zm1.88-5.028c0-.579-.194-1.008-.583-1.287-.388-.278-.978-.418-1.77-.418-.28 0-.522.004-.731.01a8.09 8.09 0 0 0-.6.045l-.418.05c-.088.01-.24.037-.457.077l-.445.082.055 1.11a51.67 51.67 0 0 1 2.211-.054c.374 0 .642.057.803.17.161.115.23.292.209.534-.015.183-.11.392-.286.627a9.103 9.103 0 0 1-.556.671c-.194.213-.368.506-.522.88a2.911 2.911 0 0 0-.21 1.221h1.321a2.32 2.32 0 0 1 .253-.93c.146-.282.315-.522.506-.72.19-.198.378-.392.56-.583.184-.191.34-.413.468-.666a1.79 1.79 0 0 0 .192-.819z"/><clipPath id="kwkgc"><use fill="#fff" xlink:href="#kwkga"/></clipPath></defs><g><g transform="translate(-514 -743)"><use fill="#96a0aa" xlink:href="#kwkgb"/><use fill="#fff" fill-opacity="0" stroke="#fff" stroke-linecap="round" stroke-linejoin="round" stroke-miterlimit="50" stroke-width="10" clip-path="url(&quot;#kwkgc&quot;)" xlink:href="#kwkgb"/></g></g></svg>