<svg xmlns="http://www.w3.org/2000/svg" xmlns:xlink="http://www.w3.org/1999/xlink" width="24" height="25" viewBox="0 0 24 25"><defs><path id="sujna" d="M1901.918 1005.537l-7.744-6.2 4.826-4.525V988h-18v6.812l4.826 4.524-7.744 6.2a1.979 1.979 0 0 1-.082-.536v-13l2 1.875V992h-2l2-1.667V987h4l6-5 6 5h4v3.333l2 1.667h-2v1.875l2-1.875v13c0 .187-.034.365-.082.537zM1887 995v-1h3v1zm-4-5h6v1h-6zm3 5h-3v-1h3zm-3-3h3v1h-3zm10-2v1h-3v-1zm0 3h-6v-1h6zm4-1v1h-3v-1zm0 3h-6v-1h6zm-7 2.265l8.137 6.515 3.218 2.683c-.357.33-.83.537-1.355.537h-20c-.525 0-.999-.207-1.355-.537l3.23-2.692z"/></defs><g><g transform="translate(-1878 -982)"><use fill="#fff" xlink:href="#sujna"/></g></g></svg>